<svg xmlns="http://www.w3.org/2000/svg" fill="none" viewBox="0 0 50 50" id="Linkedin-Icon--Streamline-Svg-Logos" height="50" width="50">
  <desc>
    Linkedin Icon Streamline Icon: https://streamlinehq.com
  </desc>
  <path fill="#0a66c2" d="M42.235677083333336 42.23645833333333H34.981562499999995V30.875989583333336c0 -2.7090104166666666 -0.04838541666666667 -6.1963541666666675 -3.7728645833333334 -6.1963541666666675 -3.778177083333334 0 -4.356250000000001 2.9515625 -4.356250000000001 5.999114583333334v11.556927083333333H19.598333333333333V18.873958333333334h6.963958333333333v3.19265625h0.09744791666666666c1.4200000000000002 -2.4279687500000002 4.060260416666667 -3.878072916666667 6.870989583333333 -3.77375 7.352343750000001 0 8.707968750000001 4.836145833333333 8.707968750000001 11.127708333333334l-0.0030208333333333333 12.815885416666667ZM11.413333333333334 15.680572916666668c-2.324947916666667 0.0004166666666666667 -4.21 -1.884010416666667 -4.210416666666667 -4.208958333333334 -0.0004166666666666667 -2.325 1.8839583333333334 -4.2101041666666665 4.20890625 -4.210520833333333 2.3248958333333336 -0.0004166666666666667 4.209947916666667 1.884010416666667 4.210364583333334 4.2090104166666675 0.00020833333333333335 1.1164583333333336 -0.44312500000000005 2.18734375 -1.2324479166666666 2.9769270833333334 -0.7893229166666668 0.7896354166666667 -1.8599479166666668 1.2333333333333334 -2.97640625 1.2335416666666668Zm3.62703125 26.555885416666666H7.778697916666667V18.873958333333334h7.261666666666667v23.362500000000004ZM45.85213541666667 0.524484375H4.133520833333334C2.1618177083333334 0.5022328125000001 0.5448958333333334 2.0816458333333334 0.5208333333333334 4.053375V45.94593750000001c0.023239583333333334 1.9726562500000002 1.64003125 3.553645833333334 3.6126875000000003 3.53296875H45.85213541666667c1.9765625 0.02447916666666667 3.5996875000000004 -1.5564062500000002 3.62703125 -3.53296875V4.050354166666667c-0.028177083333333335 -1.9756250000000002 -1.6514583333333335 -3.5549489583333336 -3.62703125 -3.529208333333334" stroke-width="0.5208"></path>
</svg>